<?xml version="1.0" encoding="utf-8"?>
<svg xmlns="http://www.w3.org/2000/svg" viewBox="0 0 16 16">
  <path d="M 3.398 5.944 C 3.398 5.679 3.504 5.425 3.691 5.237 L 7.105 1.823 C 7.293 1.635 7.547 1.53 7.813 1.53 L 11.398 1.53 C 11.951 1.53 12.398 1.978 12.398 2.53 C 12.398 8.128 12.398 8.65 12.398 13.529 C 12.398 14.082 11.951 14.53 11.398 14.53 L 4.398 14.53 C 3.846 14.53 3.398 14.082 3.398 13.53 L 3.398 5.944 Z" fill="#EBECF0"/>
  <path fill-rule="evenodd" clip-rule="evenodd" d="M 7.813 1.03 C 7.415 1.03 7.033 1.188 6.752 1.469 L 3.338 4.884 C 3.056 5.165 2.898 5.546 2.898 5.944 L 2.898 13.53 C 2.898 14.359 3.57 15.03 4.398 15.03 L 10.898 15.03 C 12.003 15.03 12.898 14.135 12.898 13.03 L 12.898 2.53 C 12.898 1.702 12.227 1.03 11.398 1.03 L 7.813 1.03 Z M 11.898 2.53 C 11.898 2.254 11.674 2.03 11.398 2.03 L 7.898 2.03 L 7.898 4.53 C 7.898 5.359 7.227 6.03 6.398 6.03 L 3.898 6.03 L 3.898 13.53 C 3.898 13.806 4.122 14.03 4.398 14.03 L 10.898 14.03 C 11.451 14.03 11.898 13.582 11.898 13.03 L 11.898 2.53 Z M 6.898 2.737 L 4.605 5.03 L 6.398 5.03 C 6.674 5.03 6.898 4.806 6.898 4.53 L 6.898 2.737 Z" fill="#6C707E"/>
  <path d="M 6.782 6.495 C 7.825 6.495 8.672 7.063 8.672 7.765 L 8.672 8.613 C 8.672 9.591 7.097 10.202 5.837 9.712 C 5.252 9.486 4.892 9.066 4.892 8.613 L 4.892 7.765 C 4.892 7.063 5.739 6.495 6.782 6.495 Z M 6.153 8.613 C 6.153 8.938 6.678 9.142 7.097 8.979 C 7.292 8.903 7.413 8.764 7.413 8.613 L 7.413 7.765 C 7.413 7.44 6.888 7.236 6.467 7.399 C 6.273 7.474 6.153 7.614 6.153 7.765 L 6.153 8.613 Z M 10.562 6.495 C 10.214 6.495 9.932 6.684 9.932 6.918 L 9.932 9.459 C 9.932 9.785 10.457 9.989 10.877 9.826 C 11.072 9.751 11.193 9.61 11.193 9.459 L 11.193 6.918 C 11.193 6.684 10.91 6.495 10.562 6.495 Z" style="fill: rgb(108, 112, 126); transform-origin: 8.028px 8.229px;" transform="matrix(-1, 0, 0, -1, 0, 0)"/>
  <path d="M 6.524 13.705 C 7.568 13.705 8.414 13.137 8.414 12.435 L 8.414 11.588 C 8.414 10.609 6.838 9.998 5.579 10.487 C 4.994 10.714 4.633 11.134 4.633 11.588 L 4.633 12.435 C 4.633 13.137 5.48 13.705 6.524 13.705 Z M 5.893 11.588 C 5.893 11.262 6.419 11.058 6.838 11.221 C 7.034 11.297 7.153 11.437 7.153 11.588 L 7.153 12.435 C 7.153 12.76 6.629 12.965 6.209 12.801 C 6.014 12.726 5.893 12.586 5.893 12.435 L 5.893 11.588 Z M 10.303 13.705 C 9.956 13.705 9.675 13.516 9.675 13.282 L 9.675 10.741 C 9.675 10.415 10.2 10.211 10.619 10.374 C 10.813 10.449 10.933 10.589 10.933 10.741 L 10.933 13.282 C 10.933 13.516 10.652 13.705 10.303 13.705 Z" style="fill: rgb(108, 112, 126); transform-origin: 7.769px 12.027px;"/>
</svg>