<?xml version="1.0" encoding="utf-8"?>
<svg xmlns="http://www.w3.org/2000/svg" viewBox="0 0 16 16" xmlns:bx="https://boxy-svg.com">
  <defs>
    <bx:guide x="6.569" y="4.039" angle="0"/>
  </defs>
  <path d="M 5.955 3.745 L 6.078 3.896 L 6.257 3.896 L 10.374 3.896 C 11.067 3.896 11.628 4.703 11.628 5.517 L 11.628 12.176 C 11.628 12.981 11.154 13.519 10.68 13.519 L 1.702 13.519 C 1.23 13.519 0.754 12.981 0.754 12.176 L 0.754 4.052 C 0.754 3.247 1.23 2.71 1.702 2.71 L 5.024 2.71 C 5.138 2.71 5.247 2.765 5.326 2.86 L 5.955 3.745 Z" stroke="#6C707E" style="paint-order: fill; fill: rgba(255, 204, 0, 0.216);"/>
  <path d="M 8.003 11.995 L 8.081 11.847 L 8.307 11.855 L 11.79 11.855 C 12.672 11.855 12.805 11.182 13.207 10.5 L 14.856 7.531 C 15.659 6.25 15.359 6.301 13.897 6.284 L 5.524 6.284 C 4.989 6.284 4.181 6.846 3.87 7.531 L 1.635 12.331 C 0.983 13.673 1.57 13.501 2.241 13.501 L 6.972 13.501 C 7.087 13.501 7.197 13.449 7.277 13.36 L 8.003 11.995 Z" stroke="#6C707E" style="fill: rgb(252, 212, 126); transform-box: fill-box; transform-origin: 50% 50%;" transform="matrix(-1, 0, 0, -1, 0, 0)"/>
</svg>