<?xml version="1.0" encoding="utf-8"?>
<svg xmlns="http://www.w3.org/2000/svg" viewBox="0 0 16 16" xmlns:bx="https://boxy-svg.com">
  <defs>
    <bx:guide x="6.569" y="4.039" angle="0"/>
  </defs>
  <path d="M 7.685 3.407 L 7.832 3.561 L 8.045 3.561 L 12.967 3.561 C 13.795 3.561 14.467 4.383 14.467 5.211 L 14.467 11.988 C 14.467 12.807 13.899 13.354 13.333 13.354 L 2.6 13.354 C 2.035 13.354 1.467 12.807 1.467 11.988 L 1.467 3.721 C 1.467 2.901 2.035 2.354 2.6 2.354 L 6.571 2.354 C 6.708 2.354 6.838 2.41 6.932 2.508 L 7.685 3.407 Z" stroke="#6C707E" style="paint-order: fill; fill: rgba(255, 204, 0, 0.216);"/>
  <path d="M 9.072 12.348 L 9.219 12.194 L 9.432 12.194 L 12.967 12.194 C 13.795 12.194 14.467 11.522 14.467 10.694 L 14.467 6.849 C 14.467 6.03 13.899 5.483 13.333 5.483 L 2.6 5.483 C 2.035 5.483 1.467 6.03 1.467 6.849 L 1.467 11.987 C 1.467 12.807 2.035 13.354 2.6 13.354 L 7.838 13.354 C 7.975 13.354 8.105 13.298 8.199 13.2 L 9.072 12.348 Z" stroke="#6C707E" style="fill: rgb(252, 212, 126);" transform="matrix(-1, 0, 0, -1, 15.933996015258, 18.836999893188)"/>
</svg>