<?xml version="1.0" encoding="utf-8"?>
<svg xmlns="http://www.w3.org/2000/svg" viewBox="0 0 16 16" xmlns:bx="https://boxy-svg.com">
  <defs>
    <bx:guide x="6.569" y="4.039" angle="0"/>
  </defs>
  <path d="M 6.491 2.565 L 6.605 2.716 L 6.77 2.716 L 10.574 2.716 C 11.215 2.716 11.733 3.523 11.733 4.337 L 11.733 10.996 C 11.733 11.801 11.295 12.339 10.858 12.339 L 2.56 12.339 C 2.124 12.339 1.684 11.801 1.684 10.996 L 1.684 2.872 C 1.684 2.067 2.308 1.53 2.744 1.53 L 5.63 1.53 C 5.735 1.53 5.836 1.585 5.909 1.68 L 6.491 2.565 Z" stroke="#6C707E" style="paint-order: fill; fill: rgba(255, 204, 0, 0.216);"/>
  <path d="M 8.383 10.815 L 8.456 10.667 L 8.664 10.675 L 11.883 10.675 C 12.698 10.675 12.821 10.002 13.193 9.32 L 14.716 6.351 C 15.459 5.07 15.182 5.121 13.83 5.104 L 6.092 5.104 C 5.598 5.104 4.851 5.666 4.564 6.351 L 2.498 11.151 C 1.895 12.493 2.438 12.321 3.058 12.321 L 7.43 12.321 C 7.536 12.321 7.638 12.269 7.712 12.18 L 8.383 10.815 Z" stroke="#6C707E" style="fill: rgb(252, 212, 126); transform-box: fill-box; transform-origin: 50% 50%;" transform="matrix(-1, 0, 0, -1, 0, 0)"/>
  <ellipse style="stroke: rgb(108, 112, 126); fill: rgb(255, 244, 200);" cx="4.461" cy="11.421" rx="3.853" ry="3.853"/>
  <ellipse style="stroke: rgb(108, 112, 126); fill: rgb(108, 112, 126);" cx="4.575" cy="11.421" rx="1.991" ry="1.912"/>
</svg>