<?xml version="1.0" encoding="utf-8"?>
<svg xmlns="http://www.w3.org/2000/svg" viewBox="0 0 16 16" xmlns:bx="https://boxy-svg.com">
  <defs>
    <bx:guide x="6.569" y="4.039" angle="0"/>
  </defs>
  <path d="M 8.349 2.521 L 8.48 2.668 L 8.668 2.668 L 13.025 2.668 C 13.759 2.668 14.353 3.459 14.353 4.257 L 14.353 10.783 C 14.353 11.571 13.851 12.098 13.349 12.098 L 3.848 12.098 C 3.347 12.098 2.844 11.571 2.844 10.783 L 2.844 2.823 C 2.844 2.033 3.347 1.506 3.848 1.506 L 7.363 1.506 C 7.484 1.506 7.6 1.56 7.683 1.655 L 8.349 2.521 Z" stroke="#6C707E" style="paint-order: fill; fill: rgba(255, 204, 0, 0.216);"/>
  <path d="M 9.576 11.129 L 9.707 10.982 L 9.896 10.982 L 13.025 10.982 C 13.759 10.982 14.353 10.333 14.353 9.537 L 14.353 5.835 C 14.353 5.045 13.851 4.519 13.349 4.519 L 3.848 4.519 C 3.347 4.519 2.844 5.045 2.844 5.835 L 2.844 10.782 C 2.844 11.571 3.347 12.098 3.848 12.098 L 8.484 12.098 C 8.605 12.098 8.721 12.045 8.805 11.95 L 9.576 11.129 Z" stroke="#6C707E" style="fill: rgb(252, 212, 126); paint-order: fill; fill-rule: nonzero; transform-box: fill-box; transform-origin: 50% 50%;" transform="matrix(-1, 0, 0, -1, 0, 0)"/>
  <ellipse style="stroke: rgb(108, 112, 126); fill: rgb(255, 244, 200);" cx="4.461" cy="11.421" rx="3.853" ry="3.853"/>
  <ellipse style="stroke: rgb(108, 112, 126); fill: rgb(108, 112, 126);" cx="4.461" cy="11.421" rx="1.912" ry="1.912"/>
</svg>