<?xml version="1.0" encoding="utf-8"?>
<svg xmlns="http://www.w3.org/2000/svg" viewBox="0 0 16 16">
  <path d="M 0.889 7.981 C 0.889 4.023 4.096 0.815 8.055 0.815 C 12.012 0.815 15.221 4.023 15.221 7.981 C 15.221 11.939 12.012 15.147 8.055 15.147 C 4.096 15.147 0.889 11.939 0.889 7.981 Z" style="fill: rgb(238, 104, 83);"/>
  <path d="M 8.972 4.875 L 8.31 4.875 C 7.097 4.875 6.458 5.49 6.458 6.397 C 6.458 7.422 6.899 7.901 7.806 8.518 L 8.554 9.021 L 6.402 12.237 L 4.794 12.237 L 6.726 9.36 C 5.615 8.564 4.992 7.791 4.992 6.483 C 4.992 4.844 6.134 3.724 8.302 3.724 L 10.454 3.724 L 10.454 12.229 L 8.972 12.229 L 8.972 4.875 Z" fill="#fff" style=""/>
</svg>