<svg width="16" height="16" viewBox="0 0 16 16" fill="none" xmlns="http://www.w3.org/2000/svg">
<path d="M7.8524 3.84613L8 4H8.21323H12.7466C13.575 4 14.5 5.17157 14.5 6V6.5V12.1333C14.5 12.9529 13.932 13.5 13.3667 13.5H2.63333C2.06804 13.5 1.5 12.9529 1.5 12.1333V7.5V3.86667C1.5 3.04707 2.06804 2.5 2.63333 2.5H6.1217C6.25792 2.5 6.38824 2.55557 6.48253 2.65387L7.8524 3.84613Z" fill="#EBECF0"/>
<path d="M1.5 7.5V12.1333C1.5 12.9529 2.06804 13.5 2.63333 13.5H13.3667C13.932 13.5 14.5 12.9529 14.5 12.1333V6.5M1.5 7.5V3.86667C1.5 3.04707 2.06804 2.5 2.63333 2.5H6.1217C6.25792 2.5 6.38824 2.55557 6.48253 2.65387L7.8524 3.84613L8 4H8.21323H12.7466C13.575 4 14.5 5.17157 14.5 6V6.5M1.5 7.5H6.1217C6.2478 7.5 6.6 7.4 7 7C7.5 6.5 8 6.5 8.5 6.5C8.9 6.5 12.6667 6.5 14.5 6.5" stroke="#6C707E"/>
</svg>
