<svg width="16" height="16" viewBox="0 0 16 16" fill="none" xmlns="http://www.w3.org/2000/svg">
<path d="M7.28261 3.34613L7.42859 3.5H7.63948H11.2658C12.0851 3.5 13 4.67157 13 5.5V6V11.6333C13 12.4529 12.4382 13 11.8792 13H2.12088C1.5618 13 1 12.4529 1 11.6333V7V3.36667C1 2.54707 1.5618 2 2.12088 2H5.57092C5.70565 2 5.83454 2.05557 5.92779 2.15387L7.28261 3.34613Z" fill="#EBECF0" stroke="#6C707E"/>
<path d="M11.264 13L2.53408 13.0002L2.46118 13.0002C1.61061 13.0003 1.29371 12.3252 1.5 11.5C1.95717 9.67133 2.99318 8.5 3.5 8.5H7C7.5 8.5 7.83005 6.49996 9 6.5C10.17 6.50004 13.6952 6.49993 15 6.50005C15.7165 6.50011 15.5068 7.2 15 7.99998L13.0528 11.8944C12.714 12.572 12.0215 13 11.264 13Z" fill="#D9D9D9" stroke="#6C707E"/>
<circle cx="4" cy="11" r="4" fill="#EBECF0"/>
<circle cx="4" cy="11" r="3.5" fill="#EBECF0" stroke="#6C707E"/>
<circle cx="4.00005" cy="11.0001" r="1.72222" fill="#6C707E" stroke="#6C707E"/>
</svg>
