<svg width="16" height="16" viewBox="0 0 16 16" fill="none" xmlns="http://www.w3.org/2000/svg">
<path d="M8.3524 3.34613L8.5 3.5H8.71323H13.2466C14.075 3.5 15 4.67157 15 5.5V6V11.6333C15 12.4529 14.432 13 13.8667 13H3.13333C2.56804 13 2 12.4529 2 11.6333V7V3.36667C2 2.54707 2.56804 2 3.13333 2H6.6217C6.75792 2 6.88824 2.05557 6.98253 2.15387L8.3524 3.34613Z" fill="#EBECF0"/>
<path d="M2 7V11.6333C2 12.4529 2.56804 13 3.13333 13H13.8667C14.432 13 15 12.4529 15 11.6333V6M2 7V3.36667C2 2.54707 2.56804 2 3.13333 2H6.6217C6.75792 2 6.88824 2.05557 6.98253 2.15387L8.3524 3.34613L8.5 3.5H8.71323H13.2466C14.075 3.5 15 4.67157 15 5.5V6M2 7H6.6217C6.7478 7 7.1 6.9 7.5 6.5C8 6 8.5 6 9 6C9.4 6 13.1667 6 15 6" stroke="#6C707E"/>
<circle cx="4" cy="10" r="4" fill="#EBECF0"/>
<circle cx="4" cy="10" r="3.5" fill="#EBECF0" stroke="#6C707E"/>
<circle cx="4.00005" cy="10.0001" r="1.72222" fill="#6C707E" stroke="#6C707E"/>
</svg>
